/* XPM */
static char *_c5c3aabe8734415965ababf59be0fcewDOt06OAADWv2PBf[] = {
/* columns rows colors chars-per-pixel */
"64 64 9 1 ",
"  c #302732",
". c #3A313A",
"X c #4B444C",
"o c #5E5252",
"O c #7E7068",
"+ c #867E7F",
"@ c #B98650",
"# c #C5944F",
"$ c #C19750",
/* pixels */
"........@@@@@@@@@@@@@@@@@@@@@@@@@@@@@@@@@@@@@@@@@@@@@@@@@@@@@@@@",
".OOO+++.@@@@@@@@@@@@@@@@@@@@@@@@@@@@@@@@@@@@@@@@@@@@@@@@@@@@@@@@",
".OOOOO+.@@@@@@@@@@@@@@@@@@@@@@@@@@@@@@@@@@@@@@@@@@@@@@@@@@@@@@@@",
".OOOOO+.........@@@@@@@@@@@@@@@@@@@@@@@@@@@@@@@@@@@@@@@@@@@@@@@@",
".OOOOO+.OOOO+++.@@@@@@@@@@@@@@@@@@@@@@@@@@@@@@@@@@@@@@@@@@@@@@@@",
".OOOOO+.OOOOOO+.@@@@@@@@@@@@@@@@@@@@@@@@@@@@@@@@@@@@@@@@@@@@@@@@",
".OOOOO+.OOOOOO+.@@@@@@@@@@@@@@@@@@@@@@@@@@@@@@@@@@@@@@@@@@@@@@@@",
".OOOOO+.OOOOOO+.........@@@@@@@@@@@@@@@@@@@@@@@@@@@@@@@@@@@@@@@@",
".OOOOO+.OOOOOO+.OOOO+++.@@@@@@@@@@@@@@@@@@@@@@@@@@@@@@@@@@@@@@@@",
".OOOOO+.OOOOOO+.OOOOOO+.@@@@@@@@@@@@@@@@@@@@@@@@@@@@@@@@@@@@@@@@",
".OOOOO+.OOOOOO+.OOOOOO+.@@@@@@@@@@@@@@@@@@@@@@@@@@@@@@@@@@@@@@@@",
".OOOOO+.OOOOOO+.OOOOOO+.........@@@@@@@@@@@@@@@@@@@@@@@@@@@@@@@@",
".OOOOO+.OOOOOO+.OOOOOO+.OOOO+++.@@@@@@@@@@@@@@@@@@@@@@@@@@@@@@@@",
".OOOOO+.OOOOOO+.OOOOOO+.OOOOOO+.@@@@@@@@@@@@@@@@@@@@@@@@@@@@@@@@",
".OOOOO+.OOOOOO+.OOOOOO+.OOOOOO+.@@@@@@@@@@@@#$$@@@@@@@@@@@@@@@@@",
".OOOOO+.OOOOOO+.OOOOOO+.OOOOOO+.........@@@@$$$@@@@@@@@@@@@@@@@@",
".OOOOO+.OOOOOO+.OOOOOO+.OOOOOO+.OOOO+++.@@@@@@@@@@@@@@@@@@@@@@@@",
".OOOOO+.OOOOOO+.OOOOOO+.OOOOOO+.OOOOOO+.@@@@@@@@@@@@@@@@@@@@@@@@",
".OOOOO+.OOOOOO+.OOOOOO+.OOOOOO+.OOOOOO+.@@@@@@@@@@@@@@@@@@@@@@@@",
".OOOOO+.OOOOOO+.OOOOOO+.OOOOOO+.OOOOOO+.........@@@@@@@@@@@@@@@@",
".OOOOO+.OOOOOO+.OOOOOO+.OOOOOO+.OOOOOO+.OOOO+++.@@@@@@@@@@@@@@@@",
".OOOOO+.OOOOOO+.OOOOOO+.OOOOOO+.OOOOOO+.OOOOOO+.@@@@@@@@@@@@@@@@",
".OOOOO+.OOOOOO+.OOOOOO+.OOOOOO+.OOOOOO+.OOOOOO+.@@@@@@@@@@@@@@@@",
".OOOOO+.OOOOOO+.OOOOOO+.OOOOOO+.OOOOOO+.OOOOOO+.........@@@@@@@@",
".OOOOO+.OOOOOO+.OOOOOO+.OOOOOO+.OOOOOO+.OOOOOO+.OOOO+++.@@@@@@@@",
".OOOOO+.OOOOOO+.OOOOOO+.OOOOOO+.OOOOOO+.OOOOOO+.OOOOOO+.@@@@@@@@",
".OOOOO+.OOOOOO+.OOOOOO+.OOOOOO+.OOOOOO+.OOOOOO+.OOOOOO+.@@@@@@@@",
".OOOOO+.OOOOOO+.OOOOOO+.OOOOOO+.OOOOOO+.OOOOOO+.OOOOOO+.........",
".OOOOO+.OOOOOO+.OOOOOO+.OOOOOO+.OOOOOO+.OOOOOO+.OOOOOO+.OOOO+++.",
".OOOOO+.OOOOOO+.OOOOOO+.OOOOOO+.OOOOOO+.OOOOOO+.OOOOOO+.OOOOOO+.",
".++++++.OOOOOO+.OOOOOO+.OOOOOO+.OOOOOO+.OOOOOO+.OOOOOO+.OOOOOO+.",
" oooooo.OOOOOO+.OOOOOO+.OOOOOO+.OOOOOO+.OOOOOO+.OOOOOO+.OOOOOO+.",
" oooooo.OOOOOO+.OOOOOO+.OOOOOO+.OOOOOO+.OOOOOO+.OOOOOO+.OOOOOO+.",
" oooooo.OOOOOO+.OOOOOO+.OOOOOO+.OOOOOO+.OOOOOO+.OOOOOO+.OOOOOO+.",
" oooooo.+++++++.OOOOOO+.OOOOOO+.OOOOOO+.OOOOOO+.OOOOOO+.OOOOOO+.",
" oooooooooooooo.OOOOOO+.OOOOOO+.OOOOOO+.OOOOOO+.OOOOOO+.OOOOOO+.",
" oooooooooooooo.OOOOOO+.OOOOOO+.OOOOOO+.OOOOOO+.OOOOOO+.OOOOOO+.",
" oooooooooooooo.OOOOOO+.OOOOOO+.OOOOOO+.OOOOOO+.OOOOOO+.OOOOOO+.",
" oooooooooooooo.+++++++.OOOOOO+.OOOOOO+.OOOOOO+.OOOOOO+.OOOOOO+.",
" oooooooooooooooooooooo.OOOOOO+.OOOOOO+.OOOOOO+.OOOOOO+.OOOOOO+.",
" oooooooooooooooooooooo.OOOOOO+.OOOOOO+.OOOOOO+.OOOOOO+.OOOOOO+.",
" oooooooooooooooooooooo.OOOOOO+.OOOOOO+.OOOOOO+.OOOOOO+.OOOOOO+.",
" oooooooooooooooooooooo.+++++++.OOOOOO+.OOOOOO+.OOOOOO+.OOOOOO+.",
" oooooooooooooooooooooooooooooo.OOOOOO+.OOOOOO+.OOOOOO+.OOOOOO+.",
" oooooooooooooooooooooooooooooo.OOOOOO+.OOOOOO+.OOOOOO+.OOOOOO+.",
" oooooooooooooooooooooooooooooo.OOOOOO+.OOOOOO+.OOOOOO+.OOOOOO+.",
" oooooooooooooooooooooooooooooo.+++++++.OOOOOO+.OOOOOO+.OOOOOO+.",
" oooooooooooooooooooooooooooooooooooooo.OOOOOO+.OOOOOO+.OOOOOO+.",
" oooooooooooooooooooooooooooooooooooooo.OOOOOO+.OOOOOO+.OOOOOO+.",
" oooooooooooooooooooooooooooooooooooooo.OOOOOO+.OOOOOO+.OOOOOO+.",
" oooooooooooooooooooooooooooooooooooooo.+++++++.OOOOOO+.OOOOOO+.",
" ooooooooooooooooooooooooXooooooooooooooooooooo.OOOOOO+.OOOOOO+.",
" ooooooooooooooooooooooXoXooooooooooooooooooooo.OOOOOO+.OOOOOO+.",
" ooooooooooooooooooooooXoXooooooooooooooooooooo.OOOOOO+.OOOOOO+.",
" oooooooooooooooooooooooXoooooooooooooooooooooo.+++++++.OOOOOO+.",
" oooooooXXXooooooooooooXooooooooooooooooXXXoooooooooooo.OOOOOO+.",
" ooooooooooXooooooooXXXXoooooooooooooooooooXooooooooXXX.OOOOOO+.",
" XoooooooXXXXXoooXXXXXXXXXoooooXXXoooooooXXXXXoooXXXXXX.OOOOOO+.",
" XXXoooXXXXXXXXXXXXXXXXXXXXooXXXXXXXoooXXXXXXXXXXXXXXXX.+++++++.",
" XXXXXXXXXXXXXXX..XXXXXXXXXXXXXXXXXXXXXXXXXXXXXX..XXXXXXXXXXXXX.",
" XXXXXXX...XXX..XXXXXX..X....XXXXXXXXXXX...XXX..XXXXXX..X....XX ",
" XXXXX........XXXXX......X.......XXXXX........XXXXX......X..... ",
" ............X...............................X................. ",
"                                                                "
};
