/* XPM */
static char *d2c213f527d74b98dab6cf78507c70e4cmEqEmNsfROZwwTW[] = {
/* columns rows colors chars-per-pixel */
"64 64 10 1 ",
"  c #004337",
". c #006B46",
"X c #2F8136",
"o c #499231",
"O c #64A42C",
"+ c #B98650",
"@ c #B88B52",
"# c #BE9051",
"$ c #C5944F",
"% c #C19750",
/* pixels */
"XXXXXXXXXXXXXXXXXXXXXXXXXXXXXXXXXXXXXXXXXXXXXXXXXXXXXXXXXXXXXXXX",
"XXXXXXXXXXXXXXXXXXXXXXXXXXXXXXXXXXXOXXXXXXXXXXXXXXXXXXXXXXXXXXXX",
"XXXXXXXXXXXXXXXXXXXXXXoXXXXXXXXXXXOOXXXXXXXXXXXXXXXXXXXXXXXXXXXX",
"XXXXXXXXXXXXXXXXXXXXXooXXXXOXXXXXXOoXXXXoXXXXXXoXXXXXXXXXXXXXXXX",
"XXXXXXXXXXXXXXXXXXXXXOOXXXXOoXoXXXoXXXXXOoXXXoOoXXXXXXXXXXXXXXXX",
"XXXXXXXXXXXXXXXXXooXXOoXXXXOOXoOXXXXXoXXOOXXXOOXXXXXXXXXXXXXXXXX",
"XXXXXXXXXXXXXXXXXoOoXXXXooXoOXOOXXXXOOXXOOXXoOXXXXoXXXXXXXXXXXXX",
"XXXXXXXXXXXXXXXXXXOOXXXXXOoXoXOOXXXXOoXXoOXXXXXXXOOXXXXXXXXXXXXX",
"XXXXXXXXXXXXXXXXXXXoXoXXXOOXX.XOXoXXoXXXXXXXXXXXOOOXXXXXXXXXXXXX",
"XXXXXXXXXXXXXXXXXXXXXoOXXoOXX XoXOoXXXXOoXXXOXXXOoXXXXXXXXXXXXXX",
"XXXXXXXXXXXXXXXXXoOXXXOO.XXXX .X.OOX.XXOOXXOOXXXoXXXXXXXXXXXXXXX",
"XXXXXXXXXXXoOOoXXoOOXXoOX .X.  . Xo. X.oOXOOoXXXXXXXXXXooXXXXXXX",
"XXXXXXXXXXXXXOOoXXOOo..Xo. ..++  .X + .oX.OOXXXXXXXXoOOOXXXXXXXX",
"XXXXXXXXXXXXXXXXXXXOoX .X.   ++   . + .X XOXX.XXooXXOOOXXXXXXXXX",
"XXXXXXXXXXXXXXXXXXXXXXX   ++++++++ +++   XX..XXOOOXooXXXXXXXXXXX",
"XXXXXXXXXXXXXOOoXX.....+++++++++++++++ + .. .XOOOXXXXXXXXXXXXXXX",
"XXXXXXXXXXXXXXOOOXX.    ++++++++++++++++   .XooXXXXXXXXXXXXXXXXX",
"XXXXXXXXXXXXXXXOOOXX.++++++++++++++++++  ++.XX .oOOoXXXXXXXXXXXX",
"XXXXXXXXoOOOXXXX...X.++%%++++++++++++++++++.  XoOOXXXXXXXXXXXXXX",
"XXXXXXXoOOOoXoOOX.   .+%%%+++++++++++++++++ +.. .XXOOOoXXXXXXXXX",
"XXXXXXXXXXXXXOOooX.++ +$%++++++++++++++++++++  +.XXoOOOoXXXXXXXX",
"XXXXXXXXXXXXXXX...  +++++++#%%+++++++++++++++++.XXXXXXXXXXXXXXXX",
"XXXXXXXXXoOXXXXX  %$++++%%%%%%%+++++++++++++++   .XXXXXXXXXXXXXX",
"XXXXXXXXXXOOoX. +%%$+++%%%%%%%%++++++++++++++++++ .XXoOOOXXXXXXX",
"XXXXXXXXXXXOOoXX..+++++%%%%%%%%+++%%%%%%%+++%%  .XXXoOOoXXXXXXXX",
"XXXXXXXXXXXXXXX.   +++++%%%%+++++%%%%%%%%++%%%%#  ..XXXXXXXXXXXX",
"XXXXXXXXXXXXXOOoX +++++++++++++++%%%%%%%%%+%%%%#+.XXOooXXXXXXXXX",
"XXXXXXXXXXXoOOoX ++++++++++%%%%++%%%%%%%%%+#%%%+.XoOOOXXXXXXXXXX",
"XXXXXoOOoXXXXX...+++++++++%%%%%++%%%%%%%%%++%%%+  .XXXXXXXXXXXXX",
"XXXXXXoOOXXXoOoXX.++++%%#+%%%%%++%%%%%%%%+++#%%...XXXXXoOOoXXXXX",
"XXXXXXXXooXXXoOOoX.+++%%+++%%%%+++%%%%%%++++++++ XXXXXoOOXXXXXXX",
"XXXXXXXXXXXXXXX    ++++++++++++++++++++++++++++++ ..XXXXXXXXXXXX",
"XXXXXXXXXXXXXX  ++++++++++++%%+++++++++++++++++.XXXXXXXXXXXXXXXX",
"XXXXXXXOOoXX.....++++%%@+++%%%%+++%%%+++++++++.XoOOoXXXXXXXXXXXX",
"XXXXXXOOoXXoOOoXX.++%%%%+++%%%%++%%%%+++%%%++   OOXXXXXXXXXXXXXX",
"XXXXXXoXXXOOOoXX  ++%%%%++%%%%%+++%%%+++%%++%%%% XoOOXXXoOOXXXXX",
"XXXXXXXXXXXXX.  ++++%%%%++%%%%%+++++++++++++%%%%..XoOOXXXoOOoXXX",
"XXXXXXXXXXXXXX... +++%%%++%%%%%+++@%++%%%+++%%..XXXXXOoXXXXXXXXX",
"XXXXXXXXXXXXXXX. ++++%%%++@%%%+++%%%%%%%%+++    .XXXXXXXXXXXXXXX",
"XXXXXXXXoOOOoX. X..%+++++++++++++%%%%%++++.++ XooOOXXXXXXXXXXXXX",
"XXXXXXXXXoOOOXX..X %.+++++++++++++%%#+++++ ... XOOoXoOOOoXXXXXXX",
"XXXXXXXXXXXXXXOOX. . ++++++++++++++++++++++ XXX XXXXOOOoXXXXXXXX",
"XXXXXXXXXXXXXOOX. XX X+. ++++++++++++++++++ .XOOOXXXXXXXXXXXXXXX",
"XXXXXXXXXXXXXXXXXooX... ++++++++++++++++ ... XXOOOXXXXXoXXXXXXXX",
"XXXXXXXXXXXXXXXOOOX..XX +.+++++++++++++++ XX..XXoOOXXXXoOOoXXXXX",
"XXXXXXXXXXXooXOOOXXXXXX.. +++. ++++++++.. .oXXXXXXXXXXXXoOOXXXXX",
"XXXXXXXXXOOOXXooXXXXXOX.X .+.X . ++.+.+ XX oOXXXXXXXXXoXXXXXXXXX",
"XXXXXXXXOOOoXXXXXXXXOO.Xo..+.X X ++.+..+ X.XOOXXXXXXXXOOoXXXXXXX",
"XXXXXXXXXXXXXXXXXXXoOOXOo.X.XX X +..+.X..OXXOOoXXoOOXXXOOXXXXXXX",
"XXXXXXXXXXXXXXXoXXXOOXXOOXX.XX.XX .X..XXXOOXXOoXXXoOOXXXooXXXXXX",
"XXXXXXXXXXXXXXoOXXXOXXXoOXXXoX.XXX.X.XXXXXOXXXXXXXXOOoXXXXXXXXXX",
"XXXXXXXXXXXXXOOOXXXXXXXXXXXoOXXXXo.XXXXoOXXXXoXXXXXXXXXXXXXXXXXX",
"XXXXXXXXXXXXXOOXXXXXXXOoXXXOOXXoXoXoXXXOOXXXXoOoXXXXXXXXXXXXXXXX",
"XXXXXXXXXXXXXoXXXXXXXXOOXXOOXXoOoOXOoXXOOXXXXXOOXXXXXXXXXXXXXXXX",
"XXXXXXXXXXXXXXXXXXXXXXOOXXoXXXOOOOXOOXXOoXXXXXOOXXXXXXXXXXXXXXXX",
"XXXXXXXXXXXXXXXXXXXXXXoOXXXXXXOoOoXoOXXoXXXXXXXOoXXXXXXXXXXXXXXX",
"XXXXXXXXXXXXXXXXXXXXXXXoXXXXXXoooXXXOXXXXXXXXXXXoXXXXXXXXXXXXXXX",
"XXXXXXXXXXXXXXXXXXXXXXXXXXXXXXXoXXXXXXXXXXXXXXXXXXXXXXXXXXXXXXXX",
"XXXXXXXXXXXXXXXXXXXXXXXXXXXXXXXXXXXXXXXXXXXXXXXXXXXXXXXXXXXXXXXX",
"XXXXXXXXXXXXXXXXXXXXXXXXXXXXXXXXXXXXXXXXXXXXXXXXXXXXXXXXXXXXXXXX",
"XXXXXXXXXXXXXXXXXXXXXXXXXXXXXXXXXXXXXXXXXXXXXXXXXXXXXXXXXXXXXXXX",
"XXXXXXXXXXXXXXXXXXXXXXXXXXXXXXXXXXXXXXXXXXXXXXXXXXXXXXXXXXXXXXXX",
"XXXXXXXXXXXXXXXXXXXXXXXXXXXXXXXXXXXXXXXXXXXXXXXXXXXXXXXXXXXXXXXX",
"XXXXXXXXXXXXXXXXXXXXXXXXXXXXXXXXXXXXXXXXXXXXXXXXXXXXXXXXXXXXXXXX"
};
