/* XPM */
static char *_5bd546f74c04928e53e33a4f49d319dLcGbC7xJ7jJ7fbQL[] = {
/* columns rows colors chars-per-pixel */
"64 64 5 1 ",
"  c #B98650",
". c #B88B52",
"X c #BE9051",
"o c #C5944F",
"O c #C19750",
/* pixels */
"                                                                ",
"                                                                ",
"                                                                ",
"                                                                ",
"                                                                ",
"                                                                ",
"                                                                ",
"                                                                ",
"                                                                ",
"                                                                ",
"                                                                ",
"                                                                ",
"                                                                ",
"                                                                ",
"                                            oOO                 ",
"                                            OOO                 ",
"                                                                ",
"                                                                ",
"                       OO                                       ",
"                       OOO                                      ",
"                       oO                                       ",
"                           XOO                                  ",
"                 OOo    OOOOOOO                                 ",
"                 OOo   OOOOOOOO                                 ",
"                       OOOOOOOO   OOOOOOO   OOO                 ",
"                        OOOO     OOOOOOOO  OOOOX                ",
"                                 OOOOOOOOO OOOOX                ",
"                           OOOO  OOOOOOOOO XOOO                 ",
"                          OOOOO  OOOOOOOOO  OOO                 ",
"                      OOX OOOOO  OOOOOOOO   XOO                 ",
"                      OO   OOOO   OOOOOO                        ",
"                                                                ",
"                            OO                                  ",
"                     OO.   OOOO   OOO                           ",
"                    OOOO   OOOO  OOOO   OOO  OOO                ",
"                    OOOO  OOOOO   OOO   OO  OOOOO               ",
"                    OOOO  OOOOO             OOOOO               ",
"                     OOO  OOOOO   .O  OOO   OOOOO               ",
"                     OOO  .OOO   OOOOOOOO    OOO                ",
"                OOOO             OOOOO                          ",
"                OOOO              OOX                           ",
"                                                                ",
"                                                                ",
"                                                                ",
"                                                                ",
"                                                                ",
"                                                                ",
"                                                                ",
"                                                                ",
"                                         OO                     ",
"                                         OO                     ",
"                                         OO                     ",
"                                                                ",
"                                                                ",
"                                                                ",
"                                                                ",
"                                                                ",
"                                                                ",
"                                                                ",
"                                                                ",
"                                                                ",
"                                                                ",
"                                                                ",
"                                                                "
};
