/* XPM */
static char *b8c315bccfb14b0fadeeec61a856fb42y0j7z01xCRQswgOC[] = {
/* columns rows colors chars-per-pixel */
"64 64 6 1 ",
"  c #004337",
". c #006B46",
"X c #2F8136",
"o c #499231",
"O c #64A42C",
"+ c #B98650",
/* pixels */
"++++++++++++++++++++++++++++++++++++++++++++++++++++++++++++++++",
"++++ XX..OOXXX XoOO  ....OoX.OOOoX.. XX..OOXXX XoOO   ... ++++++",
"++++ ....oo... ..OOO. .. OX.oOo...   ....oo... ..OOO. .. +++++++",
"++++ .. OOOo.. ..OoOO .   ..OoX.XOX. .. OOOo.. ..XoO. .   ++++++",
"++++ XOOOOOOO.  ..oOXOOoX. .OXX..OOO.XOOOOOOO.  ..oO.OOoX    +++",
"++++ OOO.OXooO .O.oOXOOOOX..oXX .XOO.OOO.OXooO .O.oOXooO X.. +++",
"++++ Ooo.OXXXO.OO.oOO.ooOoX.oXX ..OO.Ooo.OXXXO.OO.XOX.Xo oX. +++",
"+++ OoXX.XX....OX.oXX.X..oX.oX. ..X.OoXX.XX....OX XXX.X..oX. +++",
"+++ oXXX X. Xo.XX.XXX..O.o. oX. ..X.oXXX X. Xo.XX   ...O.oX ++++",
"+++ XXX. . oOO........OO.X. XX. ....XXX. . oOO........OO.X. ++++",
"+++ OO... OOOoo.  OO.Ooo... X.. ...OOO... OOOoo.  OO.Ooo.X. ++++",
"+++ O ...OOoX.    ooO.XX .. XoX.. OOO ...OOoX.    ooO.XX .. ++++",
"+++ o ..OOX...OOo. XoO.. . ..o.  oOoo ..OOX...OOo. XoO.. ..    +",
"+++ X ..OX.....oOo.X.. .  OOo... OOXX ..OX.....oOo.X.. .  OOo. +",
"+++ X . X.OOOOO.OO. ...   XOOO O.OoXX . X.OOOOO.OO. ...  .XOOO +",
"+++ .  .OOOX....OO. ...OO.XXX OO.O...  .OOOX....OO. ...OO.XXX ++",
"+++ . .XOoXX.. .XOo ....OO.XX.OX. OOOO.XOoXX.. .XOo ....OO.XX ++",
"+++    .. X.. ..XOo ..O.oO.XX.Oo.OOOX.... X.. ..XOo ..O.oO.XX ++",
"+++ ..OOo. .OOX..O...OX.oO.X..XoOOX...OOo. .OOX..O...OX.oO... ++",
"+  X ..oOo. .XOX..XX.OX.XX...OXoOX.....oOo. .XOX..XX.OX.XX...X +",
"+ OX  ..OO. .XX....O.XX ....OO.oX.OOOOO.OO. .XX....O.XX ...OOO +",
"+ .. . .OO . X.OOO.O.XX OO.OOX.XOOOX....OO . X.OOO.O.XX OO..XOX ",
"++   .OOXXX ..OOX.X.... oOO.oX.XOXXX..OOXXX ..OOX.X.... oOO..XX ",
"+ XX .OoXOOO .OoX..XOOo. Xoo.X.XO... .OoXOOO .OoX..XOOo. Xoo .. ",
" OOX   o.OOOO o......oOo.XoO.X.XXOOO ..o.OOOO o......oOo.XoO .  ",
" XO. OO.o..XOX.OOOOO.XOO.XXo...XOOXX.OO.o..XOX.OOOOO.XOO.XXo ...",
" X. oOo.O..XOO.OOX. XXOO.XoX....Xo..oOo.O..XOO.OOX. XXOO.XoX  .o",
" X. OoX.O ..XO..O.  X.XX.. . ...X..OOoX.O ..XO..O.  X.XX.. . .o.",
".X OoX... ..XOX......XOOOX...  .  .OoXX.. ..XOX......XOOOX...   ",
".. OX..OOO .XOX..OOO..OooOXOOo .....oX.OOO .XOX..OOO..OooOXOOo  ",
" . o..OO..O .OO.OOOX. OXXXOOoo........OO..O .OO.OOOX. OXXXOOoo .",
".  o..OX.XO   .OOXXX .oX.OOoX....OOO..OX.XO   .OOXXX .oX.OOoX .X",
".X o.OX..XOOOO.Ooo.. .X..OoX.XOOOOX. OX..XOOOO.Ooo.. .X..OoX. .o",
".. o XX..OOXXX XoOO  ....OoX.OOOoX.. XX..OOXXX XoOO  ....OoX ...",
".    ....oo... ..OOO. .. OX.oOo...   ....oo... ..OOO. .. OX . . ",
". X. .. OOOo.  ..OoOO .   ..OoX.XOX. .. OOOo.. ..OoOO .   . .  .",
". OO.XOOOOOOO.  ..oOXOOoX. .OXX..OOO.XOOOOOOO.  ..oOXOOoX.  X  .",
"  OO.OOO.OXooO .O.oOXOOOOX..oXX .XOO.OOO.OXooO .O.oOXOOOOX. X ..",
" . O.Ooo.OXXXO.OO.oOO.ooOoX.oXX ..OO.Ooo.OXXXO.OO.oOO.ooOoX X. X",
" . .OoX..XX....OX.oXX.X..oX.oX. ..X.OoXX.XX....OX.oXX.X..oX XX X",
" .. oX.. X. Xo.XX.XXX..O.o. oX. ..X.oXXX X. Xo.XX.XXX..O.o. .X X",
"XX  XX.. . oOO........OO.X. XX. ....XXX. . oOO........OO.X. .X X",
"X.  X.X.. OOOoo.  OO.Ooo... X.. ...OOO... OOOoo.  OO.Ooo... .. .",
"XX  X.X..OOoX.    ooO.XX .. XoX.. OOO ...OOoX.    ooO.XX .. .. .",
"XX  X.X.OOX...OOo. XoO.. . ..o.  oOoo ..OOX...OOo. XoO.. .     .",
".X  X...OX.....oOo.X.. .  OOo... OOXX ..OX.....oOo.X.. .  OOo. .",
"..  X . X.OOOOO.OO. ...   XOOO O.OoXX . X.OOOOO.OO. ...   XOOO .",
"..  X X OOOX....OO. ...OO.XXX OO.O...  .OOOX....OO. ...OO.XXX  .",
". X X X OXXX  ..OO    Oo... ..Oo.O... X OXXX  ..OO    Oo....   .",
". X X X O.. ....OOXOO.ooOOO.  Oo.o.. X. O..  ...OOXOO.ooOOO. . .",
". . X . .....  .OXOOX.oX.OO..  . o.. X. OOOO   .OXOOX.oX.OO  .X ",
". . X ....XX.. .XOO. ..X.XX...   o.. X.OOoXX.. .XOO. ..X.XX  .X ",
". X X o..XX.OO .OOX .......O..       ..OXXX.OO .OOX ....     .X ",
". X X oXX .OO.o.OO. .OOOO O     X. . .OoX..OO.o.OO. .OOOX.X  .X ",
". X X oo .Oo.o.OOX..OOX.  X .XX XX . .OX..Oo.o.OOX..OOX.. . . . ",
". X X Oo OOo...OOX.OOX. ..X. .XX...  .OX.OOo...OOX.OOX.. .. . . ",
" XX X OX Ooo...OXX.OO.. .XX.. XX.OOOo O..Ooo...OXX.OO..  .. . . ",
" X. . OX.OoX . OXX.Oo.. .XX.oO XX.OOo o. OoX . OXX.Oo. . .X . . ",
" .. . O. ooX . OXX.OoX. .XXX.O .X  ...o. OoX . OXX.OoX . .X . . ",
" .. . O. oXX . OX..Oo.. XXXXOX   .o . o. OoX . OX..Oo. . .X . . ",
"+ . . O. oXX . O...OX.. X...OX   .OOO o. OoX . O...OX. . X. . . ",
"++  . X. oX. . X. .oX.. ....X.   .OOO o. XX. . X. .oX. . X. . . ",
"+++ . X. oX. . X . oX.. oo XX.. . OOo o. X.. . X . oX. . X  .  +",
"+++ . X. oX. . . . oX..  oo X.. . XoX o. X.. . . . oX. ..   . ++"
};
